solid OpenSCAD_Model
  facet normal -1 0 0
    outer loop
      vertex -28.05 -23.6 -7
      vertex -28.05 -23.6 7
      vertex -28.05 23.6 -7
    endloop
  endfacet
  facet normal -1 0 0
    outer loop
      vertex -28.05 23.6 -7
      vertex -28.05 -23.6 7
      vertex -28.05 23.6 7
    endloop
  endfacet
  facet normal 0 -1 0
    outer loop
      vertex 15.25 -23.6 -5
      vertex -28.05 -23.6 -7
      vertex 28.05 -23.6 -7
    endloop
  endfacet
  facet normal 0 -1 0
    outer loop
      vertex -15.65 -23.6 -5
      vertex -15.65 -23.6 7
      vertex -28.05 -23.6 7
    endloop
  endfacet
  facet normal 0 -1 0
    outer loop
      vertex 28.05 -23.6 7
      vertex 15.25 -23.6 7
      vertex 28.05 -23.6 -7
    endloop
  endfacet
  facet normal 0 -1 0
    outer loop
      vertex 7 -23.6 -5
      vertex -28.05 -23.6 -7
      vertex 15.25 -23.6 -5
    endloop
  endfacet
  facet normal 0 -1 0
    outer loop
      vertex -6.5 -23.6 -5
      vertex -28.05 -23.6 -7
      vertex 7 -23.6 -5
    endloop
  endfacet
  facet normal 0 -1 0
    outer loop
      vertex 7 -23.6 -5
      vertex 7 -23.6 7
      vertex -6.5 -23.6 7
    endloop
  endfacet
  facet normal 0 -1 0
    outer loop
      vertex -15.65 -23.6 -5
      vertex -28.05 -23.6 -7
      vertex -6.5 -23.6 -5
    endloop
  endfacet
  facet normal 0 -1 0
    outer loop
      vertex -28.05 -23.6 7
      vertex -28.05 -23.6 -7
      vertex -15.65 -23.6 -5
    endloop
  endfacet
  facet normal 0 -1 0
    outer loop
      vertex -6.5 -23.6 7
      vertex -6.5 -23.6 -5
      vertex 7 -23.6 -5
    endloop
  endfacet
  facet normal 0 -1 0
    outer loop
      vertex 15.25 -23.6 7
      vertex 15.25 -23.6 -5
      vertex 28.05 -23.6 -7
    endloop
  endfacet
  facet normal 0 0 -1
    outer loop
      vertex 20.05 -15.6 -7
      vertex 28.05 -23.6 -7
      vertex -20.05 -15.6 -7
    endloop
  endfacet
  facet normal 0 0 -1
    outer loop
      vertex 20.05 15.6 -7
      vertex -28.05 23.6 -7
      vertex 28.05 23.6 -7
    endloop
  endfacet
  facet normal 0 0 -1
    outer loop
      vertex -28.05 -23.6 -7
      vertex -28.05 23.6 -7
      vertex -20.05 15.6 -7
    endloop
  endfacet
  facet normal 0 0 -1
    outer loop
      vertex -28.05 -23.6 -7
      vertex -20.05 15.6 -7
      vertex -20.05 -15.6 -7
    endloop
  endfacet
  facet normal 0 0 -1
    outer loop
      vertex -28.05 -23.6 -7
      vertex -20.05 -15.6 -7
      vertex 28.05 -23.6 -7
    endloop
  endfacet
  facet normal 0 0 -1
    outer loop
      vertex 28.05 -23.6 -7
      vertex 20.05 -15.6 -7
      vertex 28.05 23.6 -7
    endloop
  endfacet
  facet normal 0 0 -1
    outer loop
      vertex 20.05 -15.6 -7
      vertex 20.05 15.6 -7
      vertex 28.05 23.6 -7
    endloop
  endfacet
  facet normal 0 0 -1
    outer loop
      vertex -20.05 15.6 -7
      vertex -28.05 23.6 -7
      vertex 20.05 15.6 -7
    endloop
  endfacet
  facet normal 0 1 0
    outer loop
      vertex -28.05 23.6 -7
      vertex -28.05 23.6 7
      vertex 28.05 23.6 -7
    endloop
  endfacet
  facet normal 0 1 0
    outer loop
      vertex 28.05 23.6 -7
      vertex -28.05 23.6 7
      vertex 28.05 23.6 7
    endloop
  endfacet
  facet normal 0 0 1
    outer loop
      vertex -26.05 -21.6 7
      vertex -28.05 -23.6 7
      vertex -15.65 -23.6 7
    endloop
  endfacet
  facet normal 0 0 1
    outer loop
      vertex -26.05 -21.6 7
      vertex -26.05 21.6 7
      vertex -28.05 23.6 7
    endloop
  endfacet
  facet normal 0 0 1
    outer loop
      vertex -28.05 23.6 7
      vertex -28.05 -23.6 7
      vertex -26.05 -21.6 7
    endloop
  endfacet
  facet normal 0 0 1
    outer loop
      vertex 26.05 21.6 7
      vertex -28.05 23.6 7
      vertex -26.05 21.6 7
    endloop
  endfacet
  facet normal 0 0 1
    outer loop
      vertex 28.05 23.6 7
      vertex -28.05 23.6 7
      vertex 26.05 21.6 7
    endloop
  endfacet
  facet normal 0 0 1
    outer loop
      vertex 28.05 -23.6 7
      vertex 26.05 21.6 7
      vertex 26.05 -21.6 7
    endloop
  endfacet
  facet normal 0 0 1
    outer loop
      vertex 28.05 -23.6 7
      vertex 26.05 -21.6 7
      vertex 15.25 -23.6 7
    endloop
  endfacet
  facet normal 0 0 1
    outer loop
      vertex 28.05 23.6 7
      vertex 26.05 21.6 7
      vertex 28.05 -23.6 7
    endloop
  endfacet
  facet normal 0 0 1
    outer loop
      vertex 15.25 -21.6 7
      vertex 15.25 -23.6 7
      vertex 26.05 -21.6 7
    endloop
  endfacet
  facet normal 0 0 1
    outer loop
      vertex -15.65 -21.6 7
      vertex -26.05 -21.6 7
      vertex -15.65 -23.6 7
    endloop
  endfacet
  facet normal 1 0 0
    outer loop
      vertex -15.65 -21.6 -5
      vertex -15.65 -21.6 7
      vertex -15.65 -23.6 7
    endloop
  endfacet
  facet normal 1 0 0
    outer loop
      vertex -15.65 -23.6 -5
      vertex -15.65 -21.6 -5
      vertex -15.65 -23.6 7
    endloop
  endfacet
  facet normal 0 0 1
    outer loop
      vertex -15.65 -21.6 -5
      vertex -15.65 -23.6 -5
      vertex -6.5 -23.6 -5
    endloop
  endfacet
  facet normal 0 0 1
    outer loop
      vertex -6.5 -21.6 -5
      vertex -15.65 -21.6 -5
      vertex -6.5 -23.6 -5
    endloop
  endfacet
  facet normal 0 0 1
    outer loop
      vertex 20.05 -15.6 -5
      vertex -20.05 -15.6 -5
      vertex -15.65 -21.6 -5
    endloop
  endfacet
  facet normal 0 0 1
    outer loop
      vertex 15.25 -23.6 -5
      vertex 7 -21.6 -5
      vertex 7 -23.6 -5
    endloop
  endfacet
  facet normal 0 0 1
    outer loop
      vertex 15.25 -21.6 -5
      vertex 7 -21.6 -5
      vertex 15.25 -23.6 -5
    endloop
  endfacet
  facet normal 0 0 1
    outer loop
      vertex 20.05 -15.6 -5
      vertex 15.25 -21.6 -5
      vertex 26.05 -21.6 -5
    endloop
  endfacet
  facet normal 0 0 1
    outer loop
      vertex -20.05 -15.6 -5
      vertex -20.05 15.6 -5
      vertex -26.05 21.6 -5
    endloop
  endfacet
  facet normal 0 0 1
    outer loop
      vertex -26.05 21.6 -5
      vertex -20.05 15.6 -5
      vertex 26.05 21.6 -5
    endloop
  endfacet
  facet normal 0 0 1
    outer loop
      vertex 20.05 -15.6 -5
      vertex 7 -21.6 -5
      vertex 15.25 -21.6 -5
    endloop
  endfacet
  facet normal 0 0 1
    outer loop
      vertex -20.05 15.6 -5
      vertex 20.05 15.6 -5
      vertex 26.05 21.6 -5
    endloop
  endfacet
  facet normal 0 0 1
    outer loop
      vertex 26.05 21.6 -5
      vertex 20.05 -15.6 -5
      vertex 26.05 -21.6 -5
    endloop
  endfacet
  facet normal 0 0 1
    outer loop
      vertex -26.05 -21.6 -5
      vertex -20.05 -15.6 -5
      vertex -26.05 21.6 -5
    endloop
  endfacet
  facet normal 0 0 1
    outer loop
      vertex 20.05 -15.6 -5
      vertex -15.65 -21.6 -5
      vertex -6.5 -21.6 -5
    endloop
  endfacet
  facet normal 0 0 1
    outer loop
      vertex 20.05 -15.6 -5
      vertex -6.5 -21.6 -5
      vertex 7 -21.6 -5
    endloop
  endfacet
  facet normal 0 0 1
    outer loop
      vertex -26.05 -21.6 -5
      vertex -15.65 -21.6 -5
      vertex -20.05 -15.6 -5
    endloop
  endfacet
  facet normal 0 0 1
    outer loop
      vertex 20.05 15.6 -5
      vertex 20.05 -15.6 -5
      vertex 26.05 21.6 -5
    endloop
  endfacet
  facet normal -1 0 0
    outer loop
      vertex -6.5 -21.6 7
      vertex -6.5 -21.6 -5
      vertex -6.5 -23.6 7
    endloop
  endfacet
  facet normal -1 0 0
    outer loop
      vertex -6.5 -23.6 7
      vertex -6.5 -21.6 -5
      vertex -6.5 -23.6 -5
    endloop
  endfacet
  facet normal 0 0 1
    outer loop
      vertex -6.5 -21.6 7
      vertex -6.5 -23.6 7
      vertex 7 -23.6 7
    endloop
  endfacet
  facet normal 0 0 1
    outer loop
      vertex 7 -21.6 7
      vertex -6.5 -21.6 7
      vertex 7 -23.6 7
    endloop
  endfacet
  facet normal 1 0 0
    outer loop
      vertex 7 -21.6 -5
      vertex 7 -21.6 7
      vertex 7 -23.6 7
    endloop
  endfacet
  facet normal 1 0 0
    outer loop
      vertex 7 -23.6 -5
      vertex 7 -21.6 -5
      vertex 7 -23.6 7
    endloop
  endfacet
  facet normal -1 0 0
    outer loop
      vertex 15.25 -21.6 7
      vertex 15.25 -21.6 -5
      vertex 15.25 -23.6 7
    endloop
  endfacet
  facet normal -1 0 0
    outer loop
      vertex 15.25 -23.6 7
      vertex 15.25 -21.6 -5
      vertex 15.25 -23.6 -5
    endloop
  endfacet
  facet normal 1 0 0
    outer loop
      vertex 28.05 -23.6 7
      vertex 28.05 -23.6 -7
      vertex 28.05 23.6 -7
    endloop
  endfacet
  facet normal 1 0 0
    outer loop
      vertex 28.05 23.6 7
      vertex 28.05 -23.6 7
      vertex 28.05 23.6 -7
    endloop
  endfacet
  facet normal 1 0 0
    outer loop
      vertex -20.05 15.6 -7
      vertex -20.05 15.6 -5
      vertex -20.05 -15.6 -5
    endloop
  endfacet
  facet normal 1 0 0
    outer loop
      vertex -20.05 -15.6 -7
      vertex -20.05 15.6 -7
      vertex -20.05 -15.6 -5
    endloop
  endfacet
  facet normal 0 -1 0
    outer loop
      vertex 20.05 15.6 -7
      vertex 20.05 15.6 -5
      vertex -20.05 15.6 -5
    endloop
  endfacet
  facet normal 0 -1 0
    outer loop
      vertex -20.05 15.6 -7
      vertex 20.05 15.6 -7
      vertex -20.05 15.6 -5
    endloop
  endfacet
  facet normal -1 0 0
    outer loop
      vertex 20.05 15.6 -5
      vertex 20.05 15.6 -7
      vertex 20.05 -15.6 -5
    endloop
  endfacet
  facet normal -1 0 0
    outer loop
      vertex 20.05 -15.6 -5
      vertex 20.05 15.6 -7
      vertex 20.05 -15.6 -7
    endloop
  endfacet
  facet normal 0 1 0
    outer loop
      vertex 20.05 -15.6 -5
      vertex 20.05 -15.6 -7
      vertex -20.05 -15.6 -5
    endloop
  endfacet
  facet normal 0 1 0
    outer loop
      vertex -20.05 -15.6 -5
      vertex 20.05 -15.6 -7
      vertex -20.05 -15.6 -7
    endloop
  endfacet
  facet normal 0 1 0
    outer loop
      vertex 26.05 -21.6 7
      vertex 26.05 -21.6 -5
      vertex 15.25 -21.6 7
    endloop
  endfacet
  facet normal 0 1 0
    outer loop
      vertex 15.25 -21.6 7
      vertex 26.05 -21.6 -5
      vertex 15.25 -21.6 -5
    endloop
  endfacet
  facet normal -1 0 0
    outer loop
      vertex 26.05 21.6 7
      vertex 26.05 21.6 -5
      vertex 26.05 -21.6 7
    endloop
  endfacet
  facet normal -1 0 0
    outer loop
      vertex 26.05 -21.6 7
      vertex 26.05 21.6 -5
      vertex 26.05 -21.6 -5
    endloop
  endfacet
  facet normal 0 -1 0
    outer loop
      vertex 26.05 21.6 -5
      vertex 26.05 21.6 7
      vertex -26.05 21.6 7
    endloop
  endfacet
  facet normal 0 -1 0
    outer loop
      vertex -26.05 21.6 -5
      vertex 26.05 21.6 -5
      vertex -26.05 21.6 7
    endloop
  endfacet
  facet normal 1 0 0
    outer loop
      vertex -26.05 21.6 -5
      vertex -26.05 21.6 7
      vertex -26.05 -21.6 7
    endloop
  endfacet
  facet normal 1 0 0
    outer loop
      vertex -26.05 -21.6 -5
      vertex -26.05 21.6 -5
      vertex -26.05 -21.6 7
    endloop
  endfacet
  facet normal 0 1 0
    outer loop
      vertex -15.65 -21.6 7
      vertex -15.65 -21.6 -5
      vertex -26.05 -21.6 7
    endloop
  endfacet
  facet normal 0 1 0
    outer loop
      vertex -26.05 -21.6 7
      vertex -15.65 -21.6 -5
      vertex -26.05 -21.6 -5
    endloop
  endfacet
  facet normal 0 1 0
    outer loop
      vertex 7 -21.6 7
      vertex 7 -21.6 -5
      vertex -6.5 -21.6 7
    endloop
  endfacet
  facet normal 0 1 0
    outer loop
      vertex -6.5 -21.6 7
      vertex 7 -21.6 -5
      vertex -6.5 -21.6 -5
    endloop
  endfacet
endsolid OpenSCAD_Model
