solid OpenSCAD_Model
  facet normal -1 0 0
    outer loop
      vertex -30.5 -22 -15
      vertex -30.5 -27 15
      vertex -30.5 -22 15
    endloop
  endfacet
  facet normal -1 0 0
    outer loop
      vertex -30.5 -17 15
      vertex -30.5 -36.5 25.5
      vertex -30.5 36.5 25.5
    endloop
  endfacet
  facet normal -1 0 0
    outer loop
      vertex -30.5 -36.5 -25.5
      vertex -30.5 -36.5 25.5
      vertex -30.5 -32 15
    endloop
  endfacet
  facet normal -1 0 0
    outer loop
      vertex -30.5 -12 -15
      vertex -30.5 -17 15
      vertex -30.5 -12 15
    endloop
  endfacet
  facet normal -1 0 0
    outer loop
      vertex -30.5 -36.5 -25.5
      vertex -30.5 -32 15
      vertex -30.5 -32 -15
    endloop
  endfacet
  facet normal -1 0 0
    outer loop
      vertex -30.5 -36.5 -25.5
      vertex -30.5 -32 -15
      vertex -30.5 36.5 -25.5
    endloop
  endfacet
  facet normal -1 0 0
    outer loop
      vertex -30.5 -32 -15
      vertex -30.5 -27 -15
      vertex -30.5 36.5 -25.5
    endloop
  endfacet
  facet normal -1 0 0
    outer loop
      vertex -30.5 -32 15
      vertex -30.5 -36.5 25.5
      vertex -30.5 -27 15
    endloop
  endfacet
  facet normal -1 0 0
    outer loop
      vertex -30.5 -22 15
      vertex -30.5 -36.5 25.5
      vertex -30.5 -17 15
    endloop
  endfacet
  facet normal -1 0 0
    outer loop
      vertex -30.5 -27 15
      vertex -30.5 -36.5 25.5
      vertex -30.5 -22 15
    endloop
  endfacet
  facet normal -1 0 0
    outer loop
      vertex -30.5 -27 -15
      vertex -30.5 -22 -15
      vertex -30.5 36.5 -25.5
    endloop
  endfacet
  facet normal -1 0 0
    outer loop
      vertex -30.5 -22 -15
      vertex -30.5 -17 -15
      vertex -30.5 36.5 -25.5
    endloop
  endfacet
  facet normal -1 0 0
    outer loop
      vertex -30.5 23 -15
      vertex -30.5 36.5 -25.5
      vertex -30.5 18 -15
    endloop
  endfacet
  facet normal -1 0 0
    outer loop
      vertex -30.5 -12 15
      vertex -30.5 -17 15
      vertex -30.5 36.5 25.5
    endloop
  endfacet
  facet normal -1 0 0
    outer loop
      vertex -30.5 -7 15
      vertex -30.5 -12 15
      vertex -30.5 36.5 25.5
    endloop
  endfacet
  facet normal -1 0 0
    outer loop
      vertex -30.5 -17 -15
      vertex -30.5 -12 -15
      vertex -30.5 36.5 -25.5
    endloop
  endfacet
  facet normal -1 0 0
    outer loop
      vertex -30.5 -12 -15
      vertex -30.5 -7 -15
      vertex -30.5 36.5 -25.5
    endloop
  endfacet
  facet normal -1 0 0
    outer loop
      vertex -30.5 -2 -15
      vertex -30.5 -7 15
      vertex -30.5 -2 15
    endloop
  endfacet
  facet normal -1 0 0
    outer loop
      vertex -30.5 -2 15
      vertex -30.5 -7 15
      vertex -30.5 36.5 25.5
    endloop
  endfacet
  facet normal -1 0 0
    outer loop
      vertex -30.5 3 15
      vertex -30.5 -2 15
      vertex -30.5 36.5 25.5
    endloop
  endfacet
  facet normal -1 0 0
    outer loop
      vertex -30.5 -7 -15
      vertex -30.5 -2 -15
      vertex -30.5 36.5 -25.5
    endloop
  endfacet
  facet normal -1 0 0
    outer loop
      vertex -30.5 -2 -15
      vertex -30.5 3 -15
      vertex -30.5 36.5 -25.5
    endloop
  endfacet
  facet normal -1 0 0
    outer loop
      vertex -30.5 8 -15
      vertex -30.5 3 15
      vertex -30.5 8 15
    endloop
  endfacet
  facet normal -1 0 0
    outer loop
      vertex -30.5 8 15
      vertex -30.5 3 15
      vertex -30.5 36.5 25.5
    endloop
  endfacet
  facet normal -1 0 0
    outer loop
      vertex -30.5 13 15
      vertex -30.5 8 15
      vertex -30.5 36.5 25.5
    endloop
  endfacet
  facet normal -1 0 0
    outer loop
      vertex -30.5 3 -15
      vertex -30.5 8 -15
      vertex -30.5 36.5 -25.5
    endloop
  endfacet
  facet normal -1 0 0
    outer loop
      vertex -30.5 8 -15
      vertex -30.5 13 -15
      vertex -30.5 36.5 -25.5
    endloop
  endfacet
  facet normal -1 0 0
    outer loop
      vertex -30.5 18 -15
      vertex -30.5 13 15
      vertex -30.5 18 15
    endloop
  endfacet
  facet normal -1 0 0
    outer loop
      vertex -30.5 18 15
      vertex -30.5 13 15
      vertex -30.5 36.5 25.5
    endloop
  endfacet
  facet normal -1 0 0
    outer loop
      vertex -30.5 23 15
      vertex -30.5 18 15
      vertex -30.5 36.5 25.5
    endloop
  endfacet
  facet normal -1 0 0
    outer loop
      vertex -30.5 13 -15
      vertex -30.5 18 -15
      vertex -30.5 36.5 -25.5
    endloop
  endfacet
  facet normal -1 0 0
    outer loop
      vertex -30.5 28 -15
      vertex -30.5 36.5 -25.5
      vertex -30.5 23 -15
    endloop
  endfacet
  facet normal -1 0 0
    outer loop
      vertex -30.5 28 -15
      vertex -30.5 23 15
      vertex -30.5 28 15
    endloop
  endfacet
  facet normal -1 0 0
    outer loop
      vertex -30.5 28 15
      vertex -30.5 23 15
      vertex -30.5 36.5 25.5
    endloop
  endfacet
  facet normal -1 0 0
    outer loop
      vertex -30.5 33 15
      vertex -30.5 28 15
      vertex -30.5 36.5 25.5
    endloop
  endfacet
  facet normal -1 0 0
    outer loop
      vertex -30.5 36.5 -25.5
      vertex -30.5 33 15
      vertex -30.5 36.5 25.5
    endloop
  endfacet
  facet normal -1 0 0
    outer loop
      vertex -30.5 -17 15
      vertex -30.5 -12 -15
      vertex -30.5 -17 -15
    endloop
  endfacet
  facet normal -1 0 0
    outer loop
      vertex -30.5 3 15
      vertex -30.5 8 -15
      vertex -30.5 3 -15
    endloop
  endfacet
  facet normal -1 0 0
    outer loop
      vertex -30.5 23 15
      vertex -30.5 28 -15
      vertex -30.5 23 -15
    endloop
  endfacet
  facet normal -1 0 0
    outer loop
      vertex -30.5 33 15
      vertex -30.5 36.5 -25.5
      vertex -30.5 33 -15
    endloop
  endfacet
  facet normal -1 0 0
    outer loop
      vertex -30.5 33 -15
      vertex -30.5 36.5 -25.5
      vertex -30.5 28 -15
    endloop
  endfacet
  facet normal -1 0 0
    outer loop
      vertex -30.5 13 15
      vertex -30.5 18 -15
      vertex -30.5 13 -15
    endloop
  endfacet
  facet normal -1 0 0
    outer loop
      vertex -30.5 -7 15
      vertex -30.5 -2 -15
      vertex -30.5 -7 -15
    endloop
  endfacet
  facet normal -1 0 0
    outer loop
      vertex -30.5 -27 15
      vertex -30.5 -22 -15
      vertex -30.5 -27 -15
    endloop
  endfacet
  facet normal 0 -1 0
    outer loop
      vertex 22 -36.5 -24.5
      vertex -30.5 -36.5 -25.5
      vertex 30.5 -36.5 -25.5
    endloop
  endfacet
  facet normal 0 -1 0
    outer loop
      vertex -19 -36.5 -24.5
      vertex -19 -36.5 25.5
      vertex -30.5 -36.5 25.5
    endloop
  endfacet
  facet normal 0 -1 0
    outer loop
      vertex 30.5 -36.5 25.5
      vertex 22 -36.5 25.5
      vertex 30.5 -36.5 -25.5
    endloop
  endfacet
  facet normal 0 -1 0
    outer loop
      vertex 12.5 -36.5 -24.5
      vertex -30.5 -36.5 -25.5
      vertex 22 -36.5 -24.5
    endloop
  endfacet
  facet normal 0 -1 0
    outer loop
      vertex -6 -36.5 -24.5
      vertex -30.5 -36.5 -25.5
      vertex 12.5 -36.5 -24.5
    endloop
  endfacet
  facet normal 0 -1 0
    outer loop
      vertex 12.5 -36.5 -24.5
      vertex 12.5 -36.5 25.5
      vertex -6 -36.5 25.5
    endloop
  endfacet
  facet normal 0 -1 0
    outer loop
      vertex -19 -36.5 -24.5
      vertex -30.5 -36.5 -25.5
      vertex -6 -36.5 -24.5
    endloop
  endfacet
  facet normal 0 -1 0
    outer loop
      vertex -30.5 -36.5 25.5
      vertex -30.5 -36.5 -25.5
      vertex -19 -36.5 -24.5
    endloop
  endfacet
  facet normal 0 -1 0
    outer loop
      vertex -6 -36.5 25.5
      vertex -6 -36.5 -24.5
      vertex 12.5 -36.5 -24.5
    endloop
  endfacet
  facet normal 0 -1 0
    outer loop
      vertex 22 -36.5 25.5
      vertex 22 -36.5 -24.5
      vertex 30.5 -36.5 -25.5
    endloop
  endfacet
  facet normal 0 0 -1
    outer loop
      vertex -22.5 28.5 -25.5
      vertex -30.5 36.5 -25.5
      vertex 30.5 36.5 -25.5
    endloop
  endfacet
  facet normal 0 0 -1
    outer loop
      vertex 22.5 28.5 -25.5
      vertex -22.5 28.5 -25.5
      vertex 30.5 36.5 -25.5
    endloop
  endfacet
  facet normal 0 0 -1
    outer loop
      vertex -30.5 -36.5 -25.5
      vertex -30.5 36.5 -25.5
      vertex -22.5 -28.5 -25.5
    endloop
  endfacet
  facet normal 0 0 -1
    outer loop
      vertex -30.5 -36.5 -25.5
      vertex -22.5 -28.5 -25.5
      vertex 30.5 -36.5 -25.5
    endloop
  endfacet
  facet normal 0 0 -1
    outer loop
      vertex 22.5 28.5 -25.5
      vertex 30.5 -36.5 -25.5
      vertex 22.5 -28.5 -25.5
    endloop
  endfacet
  facet normal 0 0 -1
    outer loop
      vertex -22.5 -28.5 -25.5
      vertex 22.5 -28.5 -25.5
      vertex 30.5 -36.5 -25.5
    endloop
  endfacet
  facet normal 0 0 -1
    outer loop
      vertex 30.5 -36.5 -25.5
      vertex 22.5 28.5 -25.5
      vertex 30.5 36.5 -25.5
    endloop
  endfacet
  facet normal 0 0 -1
    outer loop
      vertex -22.5 -28.5 -25.5
      vertex -30.5 36.5 -25.5
      vertex -22.5 28.5 -25.5
    endloop
  endfacet
  facet normal 0 1 0
    outer loop
      vertex -30.5 36.5 -25.5
      vertex -30.5 36.5 25.5
      vertex 30.5 36.5 -25.5
    endloop
  endfacet
  facet normal 0 1 0
    outer loop
      vertex 30.5 36.5 -25.5
      vertex -30.5 36.5 25.5
      vertex 30.5 36.5 25.5
    endloop
  endfacet
  facet normal 0 0 1
    outer loop
      vertex -28.5 -34.5 25.5
      vertex -30.5 -36.5 25.5
      vertex -19 -36.5 25.5
    endloop
  endfacet
  facet normal 0 0 1
    outer loop
      vertex -28.5 -34.5 25.5
      vertex -28.5 34.5 25.5
      vertex -30.5 36.5 25.5
    endloop
  endfacet
  facet normal 0 0 1
    outer loop
      vertex -30.5 36.5 25.5
      vertex -30.5 -36.5 25.5
      vertex -28.5 -34.5 25.5
    endloop
  endfacet
  facet normal 0 0 1
    outer loop
      vertex 28.5 34.5 25.5
      vertex -30.5 36.5 25.5
      vertex -28.5 34.5 25.5
    endloop
  endfacet
  facet normal 0 0 1
    outer loop
      vertex 30.5 36.5 25.5
      vertex -30.5 36.5 25.5
      vertex 28.5 34.5 25.5
    endloop
  endfacet
  facet normal 0 0 1
    outer loop
      vertex 30.5 -36.5 25.5
      vertex 28.5 34.5 25.5
      vertex 28.5 -34.5 25.5
    endloop
  endfacet
  facet normal 0 0 1
    outer loop
      vertex 30.5 -36.5 25.5
      vertex 28.5 -34.5 25.5
      vertex 22 -36.5 25.5
    endloop
  endfacet
  facet normal 0 0 1
    outer loop
      vertex 30.5 36.5 25.5
      vertex 28.5 34.5 25.5
      vertex 30.5 -36.5 25.5
    endloop
  endfacet
  facet normal 0 0 1
    outer loop
      vertex 22 -34.5 25.5
      vertex 22 -36.5 25.5
      vertex 28.5 -34.5 25.5
    endloop
  endfacet
  facet normal 0 0 1
    outer loop
      vertex -19 -34.5 25.5
      vertex -28.5 -34.5 25.5
      vertex -19 -36.5 25.5
    endloop
  endfacet
  facet normal 0 0 -1
    outer loop
      vertex -28.5 -27 15
      vertex -28.5 -32 15
      vertex -30.5 -27 15
    endloop
  endfacet
  facet normal 0 0 -1
    outer loop
      vertex -30.5 -27 15
      vertex -28.5 -32 15
      vertex -30.5 -32 15
    endloop
  endfacet
  facet normal 0 1 0
    outer loop
      vertex -28.5 -32 15
      vertex -28.5 -32 -15
      vertex -30.5 -32 15
    endloop
  endfacet
  facet normal 0 1 0
    outer loop
      vertex -30.5 -32 15
      vertex -28.5 -32 -15
      vertex -30.5 -32 -15
    endloop
  endfacet
  facet normal 0 -1 0
    outer loop
      vertex -28.5 -27 -15
      vertex -28.5 -27 15
      vertex -30.5 -27 15
    endloop
  endfacet
  facet normal 0 -1 0
    outer loop
      vertex -30.5 -27 -15
      vertex -28.5 -27 -15
      vertex -30.5 -27 15
    endloop
  endfacet
  facet normal 0 0 1
    outer loop
      vertex -28.5 -32 -15
      vertex -28.5 -27 -15
      vertex -30.5 -27 -15
    endloop
  endfacet
  facet normal 0 0 1
    outer loop
      vertex -30.5 -32 -15
      vertex -28.5 -32 -15
      vertex -30.5 -27 -15
    endloop
  endfacet
  facet normal 0 0 -1
    outer loop
      vertex -28.5 -17 15
      vertex -28.5 -22 15
      vertex -30.5 -17 15
    endloop
  endfacet
  facet normal 0 0 -1
    outer loop
      vertex -30.5 -17 15
      vertex -28.5 -22 15
      vertex -30.5 -22 15
    endloop
  endfacet
  facet normal 0 1 0
    outer loop
      vertex -28.5 -22 15
      vertex -28.5 -22 -15
      vertex -30.5 -22 15
    endloop
  endfacet
  facet normal 0 1 0
    outer loop
      vertex -30.5 -22 15
      vertex -28.5 -22 -15
      vertex -30.5 -22 -15
    endloop
  endfacet
  facet normal 0 -1 0
    outer loop
      vertex -28.5 -17 -15
      vertex -28.5 -17 15
      vertex -30.5 -17 15
    endloop
  endfacet
  facet normal 0 -1 0
    outer loop
      vertex -30.5 -17 -15
      vertex -28.5 -17 -15
      vertex -30.5 -17 15
    endloop
  endfacet
  facet normal 0 0 1
    outer loop
      vertex -28.5 -22 -15
      vertex -28.5 -17 -15
      vertex -30.5 -17 -15
    endloop
  endfacet
  facet normal 0 0 1
    outer loop
      vertex -30.5 -22 -15
      vertex -28.5 -22 -15
      vertex -30.5 -17 -15
    endloop
  endfacet
  facet normal 0 0 -1
    outer loop
      vertex -28.5 -7 15
      vertex -28.5 -12 15
      vertex -30.5 -7 15
    endloop
  endfacet
  facet normal 0 0 -1
    outer loop
      vertex -30.5 -7 15
      vertex -28.5 -12 15
      vertex -30.5 -12 15
    endloop
  endfacet
  facet normal 0 1 0
    outer loop
      vertex -28.5 -12 15
      vertex -28.5 -12 -15
      vertex -30.5 -12 15
    endloop
  endfacet
  facet normal 0 1 0
    outer loop
      vertex -30.5 -12 15
      vertex -28.5 -12 -15
      vertex -30.5 -12 -15
    endloop
  endfacet
  facet normal 0 -1 0
    outer loop
      vertex -28.5 -7 -15
      vertex -28.5 -7 15
      vertex -30.5 -7 15
    endloop
  endfacet
  facet normal 0 -1 0
    outer loop
      vertex -30.5 -7 -15
      vertex -28.5 -7 -15
      vertex -30.5 -7 15
    endloop
  endfacet
  facet normal 0 0 1
    outer loop
      vertex -28.5 -12 -15
      vertex -28.5 -7 -15
      vertex -30.5 -7 -15
    endloop
  endfacet
  facet normal 0 0 1
    outer loop
      vertex -30.5 -12 -15
      vertex -28.5 -12 -15
      vertex -30.5 -7 -15
    endloop
  endfacet
  facet normal 0 0 -1
    outer loop
      vertex -28.5 3 15
      vertex -28.5 -2 15
      vertex -30.5 3 15
    endloop
  endfacet
  facet normal 0 0 -1
    outer loop
      vertex -30.5 3 15
      vertex -28.5 -2 15
      vertex -30.5 -2 15
    endloop
  endfacet
  facet normal 0 1 0
    outer loop
      vertex -28.5 -2 15
      vertex -28.5 -2 -15
      vertex -30.5 -2 15
    endloop
  endfacet
  facet normal 0 1 0
    outer loop
      vertex -30.5 -2 15
      vertex -28.5 -2 -15
      vertex -30.5 -2 -15
    endloop
  endfacet
  facet normal 0 -1 0
    outer loop
      vertex -28.5 3 -15
      vertex -28.5 3 15
      vertex -30.5 3 15
    endloop
  endfacet
  facet normal 0 -1 0
    outer loop
      vertex -30.5 3 -15
      vertex -28.5 3 -15
      vertex -30.5 3 15
    endloop
  endfacet
  facet normal 0 0 1
    outer loop
      vertex -28.5 -2 -15
      vertex -28.5 3 -15
      vertex -30.5 3 -15
    endloop
  endfacet
  facet normal 0 0 1
    outer loop
      vertex -30.5 -2 -15
      vertex -28.5 -2 -15
      vertex -30.5 3 -15
    endloop
  endfacet
  facet normal 0 0 -1
    outer loop
      vertex -28.5 13 15
      vertex -28.5 8 15
      vertex -30.5 13 15
    endloop
  endfacet
  facet normal 0 0 -1
    outer loop
      vertex -30.5 13 15
      vertex -28.5 8 15
      vertex -30.5 8 15
    endloop
  endfacet
  facet normal 0 1 0
    outer loop
      vertex -28.5 8 15
      vertex -28.5 8 -15
      vertex -30.5 8 15
    endloop
  endfacet
  facet normal 0 1 0
    outer loop
      vertex -30.5 8 15
      vertex -28.5 8 -15
      vertex -30.5 8 -15
    endloop
  endfacet
  facet normal 0 -1 0
    outer loop
      vertex -28.5 13 -15
      vertex -28.5 13 15
      vertex -30.5 13 15
    endloop
  endfacet
  facet normal 0 -1 0
    outer loop
      vertex -30.5 13 -15
      vertex -28.5 13 -15
      vertex -30.5 13 15
    endloop
  endfacet
  facet normal 0 0 1
    outer loop
      vertex -28.5 8 -15
      vertex -28.5 13 -15
      vertex -30.5 13 -15
    endloop
  endfacet
  facet normal 0 0 1
    outer loop
      vertex -30.5 8 -15
      vertex -28.5 8 -15
      vertex -30.5 13 -15
    endloop
  endfacet
  facet normal 0 0 -1
    outer loop
      vertex -28.5 23 15
      vertex -28.5 18 15
      vertex -30.5 23 15
    endloop
  endfacet
  facet normal 0 0 -1
    outer loop
      vertex -30.5 23 15
      vertex -28.5 18 15
      vertex -30.5 18 15
    endloop
  endfacet
  facet normal 0 1 0
    outer loop
      vertex -28.5 18 15
      vertex -28.5 18 -15
      vertex -30.5 18 15
    endloop
  endfacet
  facet normal 0 1 0
    outer loop
      vertex -30.5 18 15
      vertex -28.5 18 -15
      vertex -30.5 18 -15
    endloop
  endfacet
  facet normal 0 -1 0
    outer loop
      vertex -28.5 23 -15
      vertex -28.5 23 15
      vertex -30.5 23 15
    endloop
  endfacet
  facet normal 0 -1 0
    outer loop
      vertex -30.5 23 -15
      vertex -28.5 23 -15
      vertex -30.5 23 15
    endloop
  endfacet
  facet normal 0 0 1
    outer loop
      vertex -28.5 18 -15
      vertex -28.5 23 -15
      vertex -30.5 23 -15
    endloop
  endfacet
  facet normal 0 0 1
    outer loop
      vertex -30.5 18 -15
      vertex -28.5 18 -15
      vertex -30.5 23 -15
    endloop
  endfacet
  facet normal 0 0 -1
    outer loop
      vertex -28.5 33 15
      vertex -28.5 28 15
      vertex -30.5 33 15
    endloop
  endfacet
  facet normal 0 0 -1
    outer loop
      vertex -30.5 33 15
      vertex -28.5 28 15
      vertex -30.5 28 15
    endloop
  endfacet
  facet normal 0 1 0
    outer loop
      vertex -28.5 28 15
      vertex -28.5 28 -15
      vertex -30.5 28 15
    endloop
  endfacet
  facet normal 0 1 0
    outer loop
      vertex -30.5 28 15
      vertex -28.5 28 -15
      vertex -30.5 28 -15
    endloop
  endfacet
  facet normal 0 -1 0
    outer loop
      vertex -28.5 33 -15
      vertex -28.5 33 15
      vertex -30.5 33 15
    endloop
  endfacet
  facet normal 0 -1 0
    outer loop
      vertex -30.5 33 -15
      vertex -28.5 33 -15
      vertex -30.5 33 15
    endloop
  endfacet
  facet normal 0 0 1
    outer loop
      vertex -28.5 28 -15
      vertex -28.5 33 -15
      vertex -30.5 33 -15
    endloop
  endfacet
  facet normal 0 0 1
    outer loop
      vertex -30.5 28 -15
      vertex -28.5 28 -15
      vertex -30.5 33 -15
    endloop
  endfacet
  facet normal 1 0 0
    outer loop
      vertex -19 -34.5 -24.5
      vertex -19 -34.5 25.5
      vertex -19 -36.5 25.5
    endloop
  endfacet
  facet normal 1 0 0
    outer loop
      vertex -19 -36.5 -24.5
      vertex -19 -34.5 -24.5
      vertex -19 -36.5 25.5
    endloop
  endfacet
  facet normal 0 0 1
    outer loop
      vertex -19 -34.5 -24.5
      vertex -19 -36.5 -24.5
      vertex -6 -36.5 -24.5
    endloop
  endfacet
  facet normal 0 0 1
    outer loop
      vertex 22.5 -28.5 -24.5
      vertex -22.5 -28.5 -24.5
      vertex -19 -34.5 -24.5
    endloop
  endfacet
  facet normal 0 0 1
    outer loop
      vertex -6 -34.5 -24.5
      vertex -19 -34.5 -24.5
      vertex -6 -36.5 -24.5
    endloop
  endfacet
  facet normal 0 0 1
    outer loop
      vertex 22 -36.5 -24.5
      vertex 12.5 -34.5 -24.5
      vertex 12.5 -36.5 -24.5
    endloop
  endfacet
  facet normal 0 0 1
    outer loop
      vertex 22 -34.5 -24.5
      vertex 12.5 -34.5 -24.5
      vertex 22 -36.5 -24.5
    endloop
  endfacet
  facet normal 0 0 1
    outer loop
      vertex 22.5 -28.5 -24.5
      vertex 12.5 -34.5 -24.5
      vertex 22 -34.5 -24.5
    endloop
  endfacet
  facet normal 0 0 1
    outer loop
      vertex 28.5 34.5 -24.5
      vertex 22 -34.5 -24.5
      vertex 28.5 -34.5 -24.5
    endloop
  endfacet
  facet normal 0 0 1
    outer loop
      vertex -22.5 -28.5 -24.5
      vertex -22.5 28.5 -24.5
      vertex -28.5 34.5 -24.5
    endloop
  endfacet
  facet normal 0 0 1
    outer loop
      vertex -28.5 34.5 -24.5
      vertex -22.5 28.5 -24.5
      vertex 28.5 34.5 -24.5
    endloop
  endfacet
  facet normal 0 0 1
    outer loop
      vertex 22.5 -28.5 -24.5
      vertex -6 -34.5 -24.5
      vertex 12.5 -34.5 -24.5
    endloop
  endfacet
  facet normal 0 0 1
    outer loop
      vertex -22.5 28.5 -24.5
      vertex 22.5 28.5 -24.5
      vertex 28.5 34.5 -24.5
    endloop
  endfacet
  facet normal 0 0 1
    outer loop
      vertex 28.5 34.5 -24.5
      vertex 22.5 -28.5 -24.5
      vertex 22 -34.5 -24.5
    endloop
  endfacet
  facet normal 0 0 1
    outer loop
      vertex -28.5 -34.5 -24.5
      vertex -22.5 -28.5 -24.5
      vertex -28.5 34.5 -24.5
    endloop
  endfacet
  facet normal 0 0 1
    outer loop
      vertex 22.5 -28.5 -24.5
      vertex -19 -34.5 -24.5
      vertex -6 -34.5 -24.5
    endloop
  endfacet
  facet normal 0 0 1
    outer loop
      vertex -28.5 -34.5 -24.5
      vertex -19 -34.5 -24.5
      vertex -22.5 -28.5 -24.5
    endloop
  endfacet
  facet normal 0 0 1
    outer loop
      vertex 22.5 28.5 -24.5
      vertex 22.5 -28.5 -24.5
      vertex 28.5 34.5 -24.5
    endloop
  endfacet
  facet normal -1 0 0
    outer loop
      vertex -6 -34.5 25.5
      vertex -6 -34.5 -24.5
      vertex -6 -36.5 25.5
    endloop
  endfacet
  facet normal -1 0 0
    outer loop
      vertex -6 -36.5 25.5
      vertex -6 -34.5 -24.5
      vertex -6 -36.5 -24.5
    endloop
  endfacet
  facet normal 0 0 1
    outer loop
      vertex -6 -34.5 25.5
      vertex -6 -36.5 25.5
      vertex 12.5 -36.5 25.5
    endloop
  endfacet
  facet normal 0 0 1
    outer loop
      vertex 12.5 -34.5 25.5
      vertex -6 -34.5 25.5
      vertex 12.5 -36.5 25.5
    endloop
  endfacet
  facet normal 1 0 0
    outer loop
      vertex 12.5 -34.5 -24.5
      vertex 12.5 -34.5 25.5
      vertex 12.5 -36.5 25.5
    endloop
  endfacet
  facet normal 1 0 0
    outer loop
      vertex 12.5 -36.5 -24.5
      vertex 12.5 -34.5 -24.5
      vertex 12.5 -36.5 25.5
    endloop
  endfacet
  facet normal -1 0 0
    outer loop
      vertex 22 -34.5 25.5
      vertex 22 -34.5 -24.5
      vertex 22 -36.5 25.5
    endloop
  endfacet
  facet normal -1 0 0
    outer loop
      vertex 22 -36.5 25.5
      vertex 22 -34.5 -24.5
      vertex 22 -36.5 -24.5
    endloop
  endfacet
  facet normal 1 0 0
    outer loop
      vertex 30.5 -32 -15
      vertex 30.5 -36.5 -25.5
      vertex 30.5 36.5 -25.5
    endloop
  endfacet
  facet normal 1 0 0
    outer loop
      vertex 30.5 -27 -15
      vertex 30.5 -32 -15
      vertex 30.5 36.5 -25.5
    endloop
  endfacet
  facet normal 1 0 0
    outer loop
      vertex 30.5 -36.5 25.5
      vertex 30.5 -36.5 -25.5
      vertex 30.5 -32 -15
    endloop
  endfacet
  facet normal 1 0 0
    outer loop
      vertex 30.5 -36.5 25.5
      vertex 30.5 -32 -15
      vertex 30.5 -32 15
    endloop
  endfacet
  facet normal 1 0 0
    outer loop
      vertex 30.5 -12 -15
      vertex 30.5 -12 15
      vertex 30.5 -17 15
    endloop
  endfacet
  facet normal 1 0 0
    outer loop
      vertex 30.5 -36.5 25.5
      vertex 30.5 -32 15
      vertex 30.5 -27 15
    endloop
  endfacet
  facet normal 1 0 0
    outer loop
      vertex 30.5 -22 -15
      vertex 30.5 -27 -15
      vertex 30.5 36.5 -25.5
    endloop
  endfacet
  facet normal 1 0 0
    outer loop
      vertex 30.5 -17 -15
      vertex 30.5 -22 -15
      vertex 30.5 36.5 -25.5
    endloop
  endfacet
  facet normal 1 0 0
    outer loop
      vertex 30.5 23 15
      vertex 30.5 23 -15
      vertex 30.5 28 -15
    endloop
  endfacet
  facet normal 1 0 0
    outer loop
      vertex 30.5 -36.5 25.5
      vertex 30.5 -27 15
      vertex 30.5 -22 15
    endloop
  endfacet
  facet normal 1 0 0
    outer loop
      vertex 30.5 33 15
      vertex 30.5 33 -15
      vertex 30.5 36.5 -25.5
    endloop
  endfacet
  facet normal 1 0 0
    outer loop
      vertex 30.5 36.5 25.5
      vertex 30.5 -36.5 25.5
      vertex 30.5 -17 15
    endloop
  endfacet
  facet normal 1 0 0
    outer loop
      vertex 30.5 -12 -15
      vertex 30.5 -17 -15
      vertex 30.5 36.5 -25.5
    endloop
  endfacet
  facet normal 1 0 0
    outer loop
      vertex 30.5 -7 -15
      vertex 30.5 -12 -15
      vertex 30.5 36.5 -25.5
    endloop
  endfacet
  facet normal 1 0 0
    outer loop
      vertex 30.5 28 -15
      vertex 30.5 28 15
      vertex 30.5 23 15
    endloop
  endfacet
  facet normal 1 0 0
    outer loop
      vertex 30.5 36.5 25.5
      vertex 30.5 -17 15
      vertex 30.5 -12 15
    endloop
  endfacet
  facet normal 1 0 0
    outer loop
      vertex 30.5 36.5 25.5
      vertex 30.5 -12 15
      vertex 30.5 -7 15
    endloop
  endfacet
  facet normal 1 0 0
    outer loop
      vertex 30.5 -2 -15
      vertex 30.5 -7 -15
      vertex 30.5 36.5 -25.5
    endloop
  endfacet
  facet normal 1 0 0
    outer loop
      vertex 30.5 3 -15
      vertex 30.5 -2 -15
      vertex 30.5 36.5 -25.5
    endloop
  endfacet
  facet normal 1 0 0
    outer loop
      vertex 30.5 8 -15
      vertex 30.5 8 15
      vertex 30.5 3 15
    endloop
  endfacet
  facet normal 1 0 0
    outer loop
      vertex 30.5 36.5 25.5
      vertex 30.5 -7 15
      vertex 30.5 -2 15
    endloop
  endfacet
  facet normal 1 0 0
    outer loop
      vertex 30.5 33 -15
      vertex 30.5 28 -15
      vertex 30.5 36.5 -25.5
    endloop
  endfacet
  facet normal 1 0 0
    outer loop
      vertex 30.5 36.5 25.5
      vertex 30.5 -2 15
      vertex 30.5 3 15
    endloop
  endfacet
  facet normal 1 0 0
    outer loop
      vertex 30.5 8 -15
      vertex 30.5 3 -15
      vertex 30.5 36.5 -25.5
    endloop
  endfacet
  facet normal 1 0 0
    outer loop
      vertex 30.5 28 -15
      vertex 30.5 23 -15
      vertex 30.5 36.5 -25.5
    endloop
  endfacet
  facet normal 1 0 0
    outer loop
      vertex 30.5 13 -15
      vertex 30.5 8 -15
      vertex 30.5 36.5 -25.5
    endloop
  endfacet
  facet normal 1 0 0
    outer loop
      vertex 30.5 36.5 25.5
      vertex 30.5 3 15
      vertex 30.5 8 15
    endloop
  endfacet
  facet normal 1 0 0
    outer loop
      vertex 30.5 36.5 25.5
      vertex 30.5 8 15
      vertex 30.5 13 15
    endloop
  endfacet
  facet normal 1 0 0
    outer loop
      vertex 30.5 18 -15
      vertex 30.5 13 -15
      vertex 30.5 36.5 -25.5
    endloop
  endfacet
  facet normal 1 0 0
    outer loop
      vertex 30.5 23 -15
      vertex 30.5 18 -15
      vertex 30.5 36.5 -25.5
    endloop
  endfacet
  facet normal 1 0 0
    outer loop
      vertex 30.5 -22 -15
      vertex 30.5 -22 15
      vertex 30.5 -27 15
    endloop
  endfacet
  facet normal 1 0 0
    outer loop
      vertex 30.5 36.5 25.5
      vertex 30.5 13 15
      vertex 30.5 18 15
    endloop
  endfacet
  facet normal 1 0 0
    outer loop
      vertex 30.5 36.5 25.5
      vertex 30.5 18 15
      vertex 30.5 23 15
    endloop
  endfacet
  facet normal 1 0 0
    outer loop
      vertex 30.5 -2 -15
      vertex 30.5 -2 15
      vertex 30.5 -7 15
    endloop
  endfacet
  facet normal 1 0 0
    outer loop
      vertex 30.5 18 -15
      vertex 30.5 18 15
      vertex 30.5 13 15
    endloop
  endfacet
  facet normal 1 0 0
    outer loop
      vertex 30.5 36.5 25.5
      vertex 30.5 23 15
      vertex 30.5 28 15
    endloop
  endfacet
  facet normal 1 0 0
    outer loop
      vertex 30.5 36.5 25.5
      vertex 30.5 33 15
      vertex 30.5 36.5 -25.5
    endloop
  endfacet
  facet normal 1 0 0
    outer loop
      vertex 30.5 36.5 25.5
      vertex 30.5 28 15
      vertex 30.5 33 15
    endloop
  endfacet
  facet normal 1 0 0
    outer loop
      vertex 30.5 -22 15
      vertex 30.5 -17 15
      vertex 30.5 -36.5 25.5
    endloop
  endfacet
  facet normal 1 0 0
    outer loop
      vertex 30.5 13 15
      vertex 30.5 13 -15
      vertex 30.5 18 -15
    endloop
  endfacet
  facet normal 1 0 0
    outer loop
      vertex 30.5 3 15
      vertex 30.5 3 -15
      vertex 30.5 8 -15
    endloop
  endfacet
  facet normal 1 0 0
    outer loop
      vertex 30.5 -7 15
      vertex 30.5 -7 -15
      vertex 30.5 -2 -15
    endloop
  endfacet
  facet normal 1 0 0
    outer loop
      vertex 30.5 -17 15
      vertex 30.5 -17 -15
      vertex 30.5 -12 -15
    endloop
  endfacet
  facet normal 1 0 0
    outer loop
      vertex 30.5 -27 15
      vertex 30.5 -27 -15
      vertex 30.5 -22 -15
    endloop
  endfacet
  facet normal 1 0 0
    outer loop
      vertex -22.5 28.5 -25.5
      vertex -22.5 28.5 -24.5
      vertex -22.5 -28.5 -24.5
    endloop
  endfacet
  facet normal 1 0 0
    outer loop
      vertex -22.5 -28.5 -25.5
      vertex -22.5 28.5 -25.5
      vertex -22.5 -28.5 -24.5
    endloop
  endfacet
  facet normal 0 -1 0
    outer loop
      vertex 22.5 28.5 -25.5
      vertex 22.5 28.5 -24.5
      vertex -22.5 28.5 -24.5
    endloop
  endfacet
  facet normal 0 -1 0
    outer loop
      vertex -22.5 28.5 -25.5
      vertex 22.5 28.5 -25.5
      vertex -22.5 28.5 -24.5
    endloop
  endfacet
  facet normal -1 0 0
    outer loop
      vertex 22.5 28.5 -24.5
      vertex 22.5 28.5 -25.5
      vertex 22.5 -28.5 -24.5
    endloop
  endfacet
  facet normal -1 0 0
    outer loop
      vertex 22.5 -28.5 -24.5
      vertex 22.5 28.5 -25.5
      vertex 22.5 -28.5 -25.5
    endloop
  endfacet
  facet normal 0 1 0
    outer loop
      vertex 22.5 -28.5 -24.5
      vertex 22.5 -28.5 -25.5
      vertex -22.5 -28.5 -24.5
    endloop
  endfacet
  facet normal 0 1 0
    outer loop
      vertex -22.5 -28.5 -24.5
      vertex 22.5 -28.5 -25.5
      vertex -22.5 -28.5 -25.5
    endloop
  endfacet
  facet normal 0 1 0
    outer loop
      vertex 28.5 -34.5 25.5
      vertex 28.5 -34.5 -24.5
      vertex 22 -34.5 25.5
    endloop
  endfacet
  facet normal 0 1 0
    outer loop
      vertex 22 -34.5 25.5
      vertex 28.5 -34.5 -24.5
      vertex 22 -34.5 -24.5
    endloop
  endfacet
  facet normal -1 0 0
    outer loop
      vertex 28.5 -12 -15
      vertex 28.5 -17 15
      vertex 28.5 -12 15
    endloop
  endfacet
  facet normal -1 0 0
    outer loop
      vertex 28.5 -32 -15
      vertex 28.5 34.5 -24.5
      vertex 28.5 -34.5 -24.5
    endloop
  endfacet
  facet normal -1 0 0
    outer loop
      vertex 28.5 -27 -15
      vertex 28.5 34.5 -24.5
      vertex 28.5 -32 -15
    endloop
  endfacet
  facet normal -1 0 0
    outer loop
      vertex 28.5 -34.5 25.5
      vertex 28.5 -32 -15
      vertex 28.5 -34.5 -24.5
    endloop
  endfacet
  facet normal -1 0 0
    outer loop
      vertex 28.5 -22 -15
      vertex 28.5 34.5 -24.5
      vertex 28.5 -27 -15
    endloop
  endfacet
  facet normal -1 0 0
    outer loop
      vertex 28.5 -22 -15
      vertex 28.5 -27 15
      vertex 28.5 -22 15
    endloop
  endfacet
  facet normal -1 0 0
    outer loop
      vertex 28.5 -34.5 25.5
      vertex 28.5 -27 15
      vertex 28.5 -32 15
    endloop
  endfacet
  facet normal -1 0 0
    outer loop
      vertex 28.5 -17 -15
      vertex 28.5 34.5 -24.5
      vertex 28.5 -22 -15
    endloop
  endfacet
  facet normal -1 0 0
    outer loop
      vertex 28.5 -27 15
      vertex 28.5 -22 -15
      vertex 28.5 -27 -15
    endloop
  endfacet
  facet normal -1 0 0
    outer loop
      vertex 28.5 -12 -15
      vertex 28.5 34.5 -24.5
      vertex 28.5 -17 -15
    endloop
  endfacet
  facet normal -1 0 0
    outer loop
      vertex 28.5 -7 15
      vertex 28.5 -2 -15
      vertex 28.5 -7 -15
    endloop
  endfacet
  facet normal -1 0 0
    outer loop
      vertex 28.5 -2 -15
      vertex 28.5 -7 15
      vertex 28.5 -2 15
    endloop
  endfacet
  facet normal -1 0 0
    outer loop
      vertex 28.5 34.5 25.5
      vertex 28.5 -17 15
      vertex 28.5 -34.5 25.5
    endloop
  endfacet
  facet normal -1 0 0
    outer loop
      vertex 28.5 23 -15
      vertex 28.5 34.5 -24.5
      vertex 28.5 18 -15
    endloop
  endfacet
  facet normal -1 0 0
    outer loop
      vertex 28.5 -34.5 25.5
      vertex 28.5 -22 15
      vertex 28.5 -27 15
    endloop
  endfacet
  facet normal -1 0 0
    outer loop
      vertex 28.5 -7 -15
      vertex 28.5 34.5 -24.5
      vertex 28.5 -12 -15
    endloop
  endfacet
  facet normal -1 0 0
    outer loop
      vertex 28.5 13 15
      vertex 28.5 18 -15
      vertex 28.5 13 -15
    endloop
  endfacet
  facet normal -1 0 0
    outer loop
      vertex 28.5 -2 -15
      vertex 28.5 34.5 -24.5
      vertex 28.5 -7 -15
    endloop
  endfacet
  facet normal -1 0 0
    outer loop
      vertex 28.5 33 -15
      vertex 28.5 34.5 -24.5
      vertex 28.5 28 -15
    endloop
  endfacet
  facet normal -1 0 0
    outer loop
      vertex 28.5 8 -15
      vertex 28.5 3 15
      vertex 28.5 8 15
    endloop
  endfacet
  facet normal -1 0 0
    outer loop
      vertex 28.5 34.5 25.5
      vertex 28.5 -7 15
      vertex 28.5 -12 15
    endloop
  endfacet
  facet normal -1 0 0
    outer loop
      vertex 28.5 34.5 25.5
      vertex 28.5 -12 15
      vertex 28.5 -17 15
    endloop
  endfacet
  facet normal -1 0 0
    outer loop
      vertex 28.5 3 -15
      vertex 28.5 34.5 -24.5
      vertex 28.5 -2 -15
    endloop
  endfacet
  facet normal -1 0 0
    outer loop
      vertex 28.5 23 15
      vertex 28.5 28 -15
      vertex 28.5 23 -15
    endloop
  endfacet
  facet normal -1 0 0
    outer loop
      vertex 28.5 8 -15
      vertex 28.5 34.5 -24.5
      vertex 28.5 3 -15
    endloop
  endfacet
  facet normal -1 0 0
    outer loop
      vertex 28.5 18 -15
      vertex 28.5 13 15
      vertex 28.5 18 15
    endloop
  endfacet
  facet normal -1 0 0
    outer loop
      vertex 28.5 34.5 25.5
      vertex 28.5 3 15
      vertex 28.5 -2 15
    endloop
  endfacet
  facet normal -1 0 0
    outer loop
      vertex 28.5 34.5 25.5
      vertex 28.5 -2 15
      vertex 28.5 -7 15
    endloop
  endfacet
  facet normal -1 0 0
    outer loop
      vertex 28.5 13 -15
      vertex 28.5 34.5 -24.5
      vertex 28.5 8 -15
    endloop
  endfacet
  facet normal -1 0 0
    outer loop
      vertex 28.5 3 15
      vertex 28.5 8 -15
      vertex 28.5 3 -15
    endloop
  endfacet
  facet normal -1 0 0
    outer loop
      vertex 28.5 18 -15
      vertex 28.5 34.5 -24.5
      vertex 28.5 13 -15
    endloop
  endfacet
  facet normal -1 0 0
    outer loop
      vertex 28.5 28 -15
      vertex 28.5 23 15
      vertex 28.5 28 15
    endloop
  endfacet
  facet normal -1 0 0
    outer loop
      vertex 28.5 34.5 25.5
      vertex 28.5 13 15
      vertex 28.5 8 15
    endloop
  endfacet
  facet normal -1 0 0
    outer loop
      vertex 28.5 34.5 25.5
      vertex 28.5 8 15
      vertex 28.5 3 15
    endloop
  endfacet
  facet normal -1 0 0
    outer loop
      vertex 28.5 -22 15
      vertex 28.5 -34.5 25.5
      vertex 28.5 -17 15
    endloop
  endfacet
  facet normal -1 0 0
    outer loop
      vertex 28.5 -17 15
      vertex 28.5 -12 -15
      vertex 28.5 -17 -15
    endloop
  endfacet
  facet normal -1 0 0
    outer loop
      vertex 28.5 28 -15
      vertex 28.5 34.5 -24.5
      vertex 28.5 23 -15
    endloop
  endfacet
  facet normal -1 0 0
    outer loop
      vertex 28.5 34.5 25.5
      vertex 28.5 23 15
      vertex 28.5 18 15
    endloop
  endfacet
  facet normal -1 0 0
    outer loop
      vertex 28.5 34.5 25.5
      vertex 28.5 18 15
      vertex 28.5 13 15
    endloop
  endfacet
  facet normal -1 0 0
    outer loop
      vertex 28.5 34.5 25.5
      vertex 28.5 34.5 -24.5
      vertex 28.5 33 -15
    endloop
  endfacet
  facet normal -1 0 0
    outer loop
      vertex 28.5 34.5 25.5
      vertex 28.5 33 -15
      vertex 28.5 33 15
    endloop
  endfacet
  facet normal -1 0 0
    outer loop
      vertex 28.5 34.5 25.5
      vertex 28.5 33 15
      vertex 28.5 28 15
    endloop
  endfacet
  facet normal -1 0 0
    outer loop
      vertex 28.5 34.5 25.5
      vertex 28.5 28 15
      vertex 28.5 23 15
    endloop
  endfacet
  facet normal -1 0 0
    outer loop
      vertex 28.5 -32 -15
      vertex 28.5 -34.5 25.5
      vertex 28.5 -32 15
    endloop
  endfacet
  facet normal 0 -1 0
    outer loop
      vertex 28.5 34.5 -24.5
      vertex 28.5 34.5 25.5
      vertex -28.5 34.5 25.5
    endloop
  endfacet
  facet normal 0 -1 0
    outer loop
      vertex -28.5 34.5 -24.5
      vertex 28.5 34.5 -24.5
      vertex -28.5 34.5 25.5
    endloop
  endfacet
  facet normal 1 0 0
    outer loop
      vertex -28.5 -17 15
      vertex -28.5 34.5 25.5
      vertex -28.5 -34.5 25.5
    endloop
  endfacet
  facet normal 1 0 0
    outer loop
      vertex -28.5 -34.5 -24.5
      vertex -28.5 -32 15
      vertex -28.5 -34.5 25.5
    endloop
  endfacet
  facet normal 1 0 0
    outer loop
      vertex -28.5 -22 -15
      vertex -28.5 -22 15
      vertex -28.5 -27 15
    endloop
  endfacet
  facet normal 1 0 0
    outer loop
      vertex -28.5 -32 15
      vertex -28.5 -27 15
      vertex -28.5 -34.5 25.5
    endloop
  endfacet
  facet normal 1 0 0
    outer loop
      vertex -28.5 -34.5 -24.5
      vertex -28.5 34.5 -24.5
      vertex -28.5 -27 -15
    endloop
  endfacet
  facet normal 1 0 0
    outer loop
      vertex -28.5 -34.5 -24.5
      vertex -28.5 -32 -15
      vertex -28.5 -32 15
    endloop
  endfacet
  facet normal 1 0 0
    outer loop
      vertex -28.5 -34.5 -24.5
      vertex -28.5 -27 -15
      vertex -28.5 -32 -15
    endloop
  endfacet
  facet normal 1 0 0
    outer loop
      vertex -28.5 -27 15
      vertex -28.5 -22 15
      vertex -28.5 -34.5 25.5
    endloop
  endfacet
  facet normal 1 0 0
    outer loop
      vertex -28.5 -12 -15
      vertex -28.5 -12 15
      vertex -28.5 -17 15
    endloop
  endfacet
  facet normal 1 0 0
    outer loop
      vertex -28.5 -12 15
      vertex -28.5 34.5 25.5
      vertex -28.5 -17 15
    endloop
  endfacet
  facet normal 1 0 0
    outer loop
      vertex -28.5 -22 -15
      vertex -28.5 34.5 -24.5
      vertex -28.5 -17 -15
    endloop
  endfacet
  facet normal 1 0 0
    outer loop
      vertex -28.5 -27 -15
      vertex -28.5 34.5 -24.5
      vertex -28.5 -22 -15
    endloop
  endfacet
  facet normal 1 0 0
    outer loop
      vertex -28.5 -7 15
      vertex -28.5 34.5 25.5
      vertex -28.5 -12 15
    endloop
  endfacet
  facet normal 1 0 0
    outer loop
      vertex -28.5 -2 15
      vertex -28.5 34.5 25.5
      vertex -28.5 -7 15
    endloop
  endfacet
  facet normal 1 0 0
    outer loop
      vertex -28.5 -12 -15
      vertex -28.5 34.5 -24.5
      vertex -28.5 -7 -15
    endloop
  endfacet
  facet normal 1 0 0
    outer loop
      vertex -28.5 28 -15
      vertex -28.5 28 15
      vertex -28.5 23 15
    endloop
  endfacet
  facet normal 1 0 0
    outer loop
      vertex -28.5 -17 -15
      vertex -28.5 34.5 -24.5
      vertex -28.5 -12 -15
    endloop
  endfacet
  facet normal 1 0 0
    outer loop
      vertex -28.5 3 15
      vertex -28.5 34.5 25.5
      vertex -28.5 -2 15
    endloop
  endfacet
  facet normal 1 0 0
    outer loop
      vertex -28.5 8 -15
      vertex -28.5 8 15
      vertex -28.5 3 15
    endloop
  endfacet
  facet normal 1 0 0
    outer loop
      vertex -28.5 8 15
      vertex -28.5 34.5 25.5
      vertex -28.5 3 15
    endloop
  endfacet
  facet normal 1 0 0
    outer loop
      vertex -28.5 28 -15
      vertex -28.5 23 -15
      vertex -28.5 34.5 -24.5
    endloop
  endfacet
  facet normal 1 0 0
    outer loop
      vertex -28.5 -2 -15
      vertex -28.5 34.5 -24.5
      vertex -28.5 3 -15
    endloop
  endfacet
  facet normal 1 0 0
    outer loop
      vertex -28.5 -7 -15
      vertex -28.5 34.5 -24.5
      vertex -28.5 -2 -15
    endloop
  endfacet
  facet normal 1 0 0
    outer loop
      vertex -28.5 13 15
      vertex -28.5 34.5 25.5
      vertex -28.5 8 15
    endloop
  endfacet
  facet normal 1 0 0
    outer loop
      vertex -28.5 18 15
      vertex -28.5 34.5 25.5
      vertex -28.5 13 15
    endloop
  endfacet
  facet normal 1 0 0
    outer loop
      vertex -28.5 23 -15
      vertex -28.5 18 -15
      vertex -28.5 34.5 -24.5
    endloop
  endfacet
  facet normal 1 0 0
    outer loop
      vertex -28.5 8 -15
      vertex -28.5 34.5 -24.5
      vertex -28.5 13 -15
    endloop
  endfacet
  facet normal 1 0 0
    outer loop
      vertex -28.5 3 -15
      vertex -28.5 34.5 -24.5
      vertex -28.5 8 -15
    endloop
  endfacet
  facet normal 1 0 0
    outer loop
      vertex -28.5 23 15
      vertex -28.5 34.5 25.5
      vertex -28.5 18 15
    endloop
  endfacet
  facet normal 1 0 0
    outer loop
      vertex -28.5 28 15
      vertex -28.5 34.5 25.5
      vertex -28.5 23 15
    endloop
  endfacet
  facet normal 1 0 0
    outer loop
      vertex -28.5 23 15
      vertex -28.5 23 -15
      vertex -28.5 28 -15
    endloop
  endfacet
  facet normal 1 0 0
    outer loop
      vertex -28.5 -2 -15
      vertex -28.5 -2 15
      vertex -28.5 -7 15
    endloop
  endfacet
  facet normal 1 0 0
    outer loop
      vertex -28.5 13 -15
      vertex -28.5 34.5 -24.5
      vertex -28.5 18 -15
    endloop
  endfacet
  facet normal 1 0 0
    outer loop
      vertex -28.5 33 15
      vertex -28.5 34.5 25.5
      vertex -28.5 28 15
    endloop
  endfacet
  facet normal 1 0 0
    outer loop
      vertex -28.5 34.5 -24.5
      vertex -28.5 34.5 25.5
      vertex -28.5 33 15
    endloop
  endfacet
  facet normal 1 0 0
    outer loop
      vertex -28.5 34.5 -24.5
      vertex -28.5 33 15
      vertex -28.5 33 -15
    endloop
  endfacet
  facet normal 1 0 0
    outer loop
      vertex -28.5 33 -15
      vertex -28.5 28 -15
      vertex -28.5 34.5 -24.5
    endloop
  endfacet
  facet normal 1 0 0
    outer loop
      vertex -28.5 18 -15
      vertex -28.5 18 15
      vertex -28.5 13 15
    endloop
  endfacet
  facet normal 1 0 0
    outer loop
      vertex -28.5 -22 15
      vertex -28.5 -17 15
      vertex -28.5 -34.5 25.5
    endloop
  endfacet
  facet normal 1 0 0
    outer loop
      vertex -28.5 13 15
      vertex -28.5 13 -15
      vertex -28.5 18 -15
    endloop
  endfacet
  facet normal 1 0 0
    outer loop
      vertex -28.5 3 15
      vertex -28.5 3 -15
      vertex -28.5 8 -15
    endloop
  endfacet
  facet normal 1 0 0
    outer loop
      vertex -28.5 -7 15
      vertex -28.5 -7 -15
      vertex -28.5 -2 -15
    endloop
  endfacet
  facet normal 1 0 0
    outer loop
      vertex -28.5 -17 15
      vertex -28.5 -17 -15
      vertex -28.5 -12 -15
    endloop
  endfacet
  facet normal 1 0 0
    outer loop
      vertex -28.5 -27 15
      vertex -28.5 -27 -15
      vertex -28.5 -22 -15
    endloop
  endfacet
  facet normal 0 1 0
    outer loop
      vertex -19 -34.5 25.5
      vertex -19 -34.5 -24.5
      vertex -28.5 -34.5 25.5
    endloop
  endfacet
  facet normal 0 1 0
    outer loop
      vertex -28.5 -34.5 25.5
      vertex -19 -34.5 -24.5
      vertex -28.5 -34.5 -24.5
    endloop
  endfacet
  facet normal 0 1 0
    outer loop
      vertex 12.5 -34.5 25.5
      vertex 12.5 -34.5 -24.5
      vertex -6 -34.5 25.5
    endloop
  endfacet
  facet normal 0 1 0
    outer loop
      vertex -6 -34.5 25.5
      vertex 12.5 -34.5 -24.5
      vertex -6 -34.5 -24.5
    endloop
  endfacet
  facet normal 0 0 1
    outer loop
      vertex 30.5 -32 -15
      vertex 30.5 -27 -15
      vertex 28.5 -27 -15
    endloop
  endfacet
  facet normal 0 0 1
    outer loop
      vertex 28.5 -32 -15
      vertex 30.5 -32 -15
      vertex 28.5 -27 -15
    endloop
  endfacet
  facet normal 0 1 0
    outer loop
      vertex 30.5 -32 15
      vertex 30.5 -32 -15
      vertex 28.5 -32 15
    endloop
  endfacet
  facet normal 0 1 0
    outer loop
      vertex 28.5 -32 15
      vertex 30.5 -32 -15
      vertex 28.5 -32 -15
    endloop
  endfacet
  facet normal 0 -1 0
    outer loop
      vertex 30.5 -27 -15
      vertex 30.5 -27 15
      vertex 28.5 -27 15
    endloop
  endfacet
  facet normal 0 -1 0
    outer loop
      vertex 28.5 -27 -15
      vertex 30.5 -27 -15
      vertex 28.5 -27 15
    endloop
  endfacet
  facet normal 0 0 -1
    outer loop
      vertex 30.5 -27 15
      vertex 30.5 -32 15
      vertex 28.5 -27 15
    endloop
  endfacet
  facet normal 0 0 -1
    outer loop
      vertex 28.5 -27 15
      vertex 30.5 -32 15
      vertex 28.5 -32 15
    endloop
  endfacet
  facet normal 0 0 1
    outer loop
      vertex 30.5 -22 -15
      vertex 30.5 -17 -15
      vertex 28.5 -17 -15
    endloop
  endfacet
  facet normal 0 0 1
    outer loop
      vertex 28.5 -22 -15
      vertex 30.5 -22 -15
      vertex 28.5 -17 -15
    endloop
  endfacet
  facet normal 0 1 0
    outer loop
      vertex 30.5 -22 15
      vertex 30.5 -22 -15
      vertex 28.5 -22 15
    endloop
  endfacet
  facet normal 0 1 0
    outer loop
      vertex 28.5 -22 15
      vertex 30.5 -22 -15
      vertex 28.5 -22 -15
    endloop
  endfacet
  facet normal 0 -1 0
    outer loop
      vertex 30.5 -17 -15
      vertex 30.5 -17 15
      vertex 28.5 -17 15
    endloop
  endfacet
  facet normal 0 -1 0
    outer loop
      vertex 28.5 -17 -15
      vertex 30.5 -17 -15
      vertex 28.5 -17 15
    endloop
  endfacet
  facet normal 0 0 -1
    outer loop
      vertex 30.5 -17 15
      vertex 30.5 -22 15
      vertex 28.5 -17 15
    endloop
  endfacet
  facet normal 0 0 -1
    outer loop
      vertex 28.5 -17 15
      vertex 30.5 -22 15
      vertex 28.5 -22 15
    endloop
  endfacet
  facet normal 0 0 1
    outer loop
      vertex 30.5 -12 -15
      vertex 30.5 -7 -15
      vertex 28.5 -7 -15
    endloop
  endfacet
  facet normal 0 0 1
    outer loop
      vertex 28.5 -12 -15
      vertex 30.5 -12 -15
      vertex 28.5 -7 -15
    endloop
  endfacet
  facet normal 0 1 0
    outer loop
      vertex 30.5 -12 15
      vertex 30.5 -12 -15
      vertex 28.5 -12 15
    endloop
  endfacet
  facet normal 0 1 0
    outer loop
      vertex 28.5 -12 15
      vertex 30.5 -12 -15
      vertex 28.5 -12 -15
    endloop
  endfacet
  facet normal 0 -1 0
    outer loop
      vertex 30.5 -7 -15
      vertex 30.5 -7 15
      vertex 28.5 -7 15
    endloop
  endfacet
  facet normal 0 -1 0
    outer loop
      vertex 28.5 -7 -15
      vertex 30.5 -7 -15
      vertex 28.5 -7 15
    endloop
  endfacet
  facet normal 0 0 -1
    outer loop
      vertex 30.5 -7 15
      vertex 30.5 -12 15
      vertex 28.5 -7 15
    endloop
  endfacet
  facet normal 0 0 -1
    outer loop
      vertex 28.5 -7 15
      vertex 30.5 -12 15
      vertex 28.5 -12 15
    endloop
  endfacet
  facet normal 0 0 1
    outer loop
      vertex 30.5 -2 -15
      vertex 30.5 3 -15
      vertex 28.5 3 -15
    endloop
  endfacet
  facet normal 0 0 1
    outer loop
      vertex 28.5 -2 -15
      vertex 30.5 -2 -15
      vertex 28.5 3 -15
    endloop
  endfacet
  facet normal 0 1 0
    outer loop
      vertex 30.5 -2 15
      vertex 30.5 -2 -15
      vertex 28.5 -2 15
    endloop
  endfacet
  facet normal 0 1 0
    outer loop
      vertex 28.5 -2 15
      vertex 30.5 -2 -15
      vertex 28.5 -2 -15
    endloop
  endfacet
  facet normal 0 -1 0
    outer loop
      vertex 30.5 3 -15
      vertex 30.5 3 15
      vertex 28.5 3 15
    endloop
  endfacet
  facet normal 0 -1 0
    outer loop
      vertex 28.5 3 -15
      vertex 30.5 3 -15
      vertex 28.5 3 15
    endloop
  endfacet
  facet normal 0 0 -1
    outer loop
      vertex 30.5 3 15
      vertex 30.5 -2 15
      vertex 28.5 3 15
    endloop
  endfacet
  facet normal 0 0 -1
    outer loop
      vertex 28.5 3 15
      vertex 30.5 -2 15
      vertex 28.5 -2 15
    endloop
  endfacet
  facet normal 0 0 1
    outer loop
      vertex 30.5 8 -15
      vertex 30.5 13 -15
      vertex 28.5 13 -15
    endloop
  endfacet
  facet normal 0 0 1
    outer loop
      vertex 28.5 8 -15
      vertex 30.5 8 -15
      vertex 28.5 13 -15
    endloop
  endfacet
  facet normal 0 1 0
    outer loop
      vertex 30.5 8 15
      vertex 30.5 8 -15
      vertex 28.5 8 15
    endloop
  endfacet
  facet normal 0 1 0
    outer loop
      vertex 28.5 8 15
      vertex 30.5 8 -15
      vertex 28.5 8 -15
    endloop
  endfacet
  facet normal 0 -1 0
    outer loop
      vertex 30.5 13 -15
      vertex 30.5 13 15
      vertex 28.5 13 15
    endloop
  endfacet
  facet normal 0 -1 0
    outer loop
      vertex 28.5 13 -15
      vertex 30.5 13 -15
      vertex 28.5 13 15
    endloop
  endfacet
  facet normal 0 0 -1
    outer loop
      vertex 30.5 13 15
      vertex 30.5 8 15
      vertex 28.5 13 15
    endloop
  endfacet
  facet normal 0 0 -1
    outer loop
      vertex 28.5 13 15
      vertex 30.5 8 15
      vertex 28.5 8 15
    endloop
  endfacet
  facet normal 0 0 1
    outer loop
      vertex 30.5 18 -15
      vertex 30.5 23 -15
      vertex 28.5 23 -15
    endloop
  endfacet
  facet normal 0 0 1
    outer loop
      vertex 28.5 18 -15
      vertex 30.5 18 -15
      vertex 28.5 23 -15
    endloop
  endfacet
  facet normal 0 1 0
    outer loop
      vertex 30.5 18 15
      vertex 30.5 18 -15
      vertex 28.5 18 15
    endloop
  endfacet
  facet normal 0 1 0
    outer loop
      vertex 28.5 18 15
      vertex 30.5 18 -15
      vertex 28.5 18 -15
    endloop
  endfacet
  facet normal 0 -1 0
    outer loop
      vertex 30.5 23 -15
      vertex 30.5 23 15
      vertex 28.5 23 15
    endloop
  endfacet
  facet normal 0 -1 0
    outer loop
      vertex 28.5 23 -15
      vertex 30.5 23 -15
      vertex 28.5 23 15
    endloop
  endfacet
  facet normal 0 0 -1
    outer loop
      vertex 30.5 23 15
      vertex 30.5 18 15
      vertex 28.5 23 15
    endloop
  endfacet
  facet normal 0 0 -1
    outer loop
      vertex 28.5 23 15
      vertex 30.5 18 15
      vertex 28.5 18 15
    endloop
  endfacet
  facet normal 0 0 1
    outer loop
      vertex 30.5 28 -15
      vertex 30.5 33 -15
      vertex 28.5 33 -15
    endloop
  endfacet
  facet normal 0 0 1
    outer loop
      vertex 28.5 28 -15
      vertex 30.5 28 -15
      vertex 28.5 33 -15
    endloop
  endfacet
  facet normal 0 1 0
    outer loop
      vertex 30.5 28 15
      vertex 30.5 28 -15
      vertex 28.5 28 15
    endloop
  endfacet
  facet normal 0 1 0
    outer loop
      vertex 28.5 28 15
      vertex 30.5 28 -15
      vertex 28.5 28 -15
    endloop
  endfacet
  facet normal 0 -1 0
    outer loop
      vertex 30.5 33 -15
      vertex 30.5 33 15
      vertex 28.5 33 15
    endloop
  endfacet
  facet normal 0 -1 0
    outer loop
      vertex 28.5 33 -15
      vertex 30.5 33 -15
      vertex 28.5 33 15
    endloop
  endfacet
  facet normal 0 0 -1
    outer loop
      vertex 30.5 33 15
      vertex 30.5 28 15
      vertex 28.5 33 15
    endloop
  endfacet
  facet normal 0 0 -1
    outer loop
      vertex 28.5 33 15
      vertex 30.5 28 15
      vertex 28.5 28 15
    endloop
  endfacet
endsolid OpenSCAD_Model
