solid OpenSCAD_Model
  facet normal -1 0 0
    outer loop
      vertex -30.5 -36.5 1
      vertex -30.5 -36.5 3
      vertex -30.5 36.5 1
    endloop
  endfacet
  facet normal -1 0 0
    outer loop
      vertex -30.5 36.5 1
      vertex -30.5 -36.5 3
      vertex -30.5 36.5 3
    endloop
  endfacet
  facet normal 0 -1 0
    outer loop
      vertex -30.5 -36.5 3
      vertex -30.5 -36.5 1
      vertex 30.5 -36.5 1
    endloop
  endfacet
  facet normal 0 -1 0
    outer loop
      vertex 30.5 -36.5 3
      vertex -30.5 -36.5 3
      vertex 30.5 -36.5 1
    endloop
  endfacet
  facet normal 0 0 -1
    outer loop
      vertex -28.5 -34.5 1
      vertex 30.5 -36.5 1
      vertex -30.5 -36.5 1
    endloop
  endfacet
  facet normal 0 0 -1
    outer loop
      vertex 28.5 -34.5 1
      vertex 30.5 -36.5 1
      vertex -28.5 -34.5 1
    endloop
  endfacet
  facet normal 0 0 -1
    outer loop
      vertex -30.5 36.5 1
      vertex -28.5 -34.5 1
      vertex -30.5 -36.5 1
    endloop
  endfacet
  facet normal 0 0 -1
    outer loop
      vertex 28.5 34.5 1
      vertex 30.5 -36.5 1
      vertex 28.5 -34.5 1
    endloop
  endfacet
  facet normal 0 0 -1
    outer loop
      vertex 30.5 36.5 1
      vertex 30.5 -36.5 1
      vertex 28.5 34.5 1
    endloop
  endfacet
  facet normal 0 0 -1
    outer loop
      vertex 30.5 36.5 1
      vertex 28.5 34.5 1
      vertex -30.5 36.5 1
    endloop
  endfacet
  facet normal 0 0 -1
    outer loop
      vertex 28.5 34.5 1
      vertex -28.5 34.5 1
      vertex -30.5 36.5 1
    endloop
  endfacet
  facet normal 0 0 -1
    outer loop
      vertex -28.5 -34.5 1
      vertex -30.5 36.5 1
      vertex -28.5 34.5 1
    endloop
  endfacet
  facet normal 0 1 0
    outer loop
      vertex -30.5 36.5 1
      vertex -30.5 36.5 3
      vertex 30.5 36.5 1
    endloop
  endfacet
  facet normal 0 1 0
    outer loop
      vertex 30.5 36.5 1
      vertex -30.5 36.5 3
      vertex 30.5 36.5 3
    endloop
  endfacet
  facet normal 0 0 1
    outer loop
      vertex -30.5 36.5 3
      vertex -30.5 -36.5 3
      vertex 30.5 -36.5 3
    endloop
  endfacet
  facet normal 0 0 1
    outer loop
      vertex 30.5 36.5 3
      vertex -30.5 36.5 3
      vertex 30.5 -36.5 3
    endloop
  endfacet
  facet normal 1 0 0
    outer loop
      vertex 30.5 -36.5 3
      vertex 30.5 -36.5 1
      vertex 30.5 36.5 1
    endloop
  endfacet
  facet normal 1 0 0
    outer loop
      vertex 30.5 36.5 3
      vertex 30.5 -36.5 3
      vertex 30.5 36.5 1
    endloop
  endfacet
  facet normal 0 -1 0
    outer loop
      vertex -28.5 -34.5 1
      vertex -28.5 -34.5 -1
      vertex 28.5 -34.5 -1
    endloop
  endfacet
  facet normal 0 -1 0
    outer loop
      vertex 28.5 -34.5 1
      vertex -28.5 -34.5 1
      vertex 28.5 -34.5 -1
    endloop
  endfacet
  facet normal -1 0 0
    outer loop
      vertex -28.5 -34.5 -1
      vertex -28.5 -34.5 1
      vertex -28.5 34.5 -1
    endloop
  endfacet
  facet normal -1 0 0
    outer loop
      vertex -28.5 34.5 -1
      vertex -28.5 -34.5 1
      vertex -28.5 34.5 1
    endloop
  endfacet
  facet normal 0 1 0
    outer loop
      vertex -28.5 34.5 -1
      vertex -28.5 34.5 1
      vertex 28.5 34.5 -1
    endloop
  endfacet
  facet normal 0 1 0
    outer loop
      vertex 28.5 34.5 -1
      vertex -28.5 34.5 1
      vertex 28.5 34.5 1
    endloop
  endfacet
  facet normal 1 0 0
    outer loop
      vertex 28.5 -34.5 1
      vertex 28.5 -34.5 -1
      vertex 28.5 34.5 -1
    endloop
  endfacet
  facet normal 1 0 0
    outer loop
      vertex 28.5 34.5 1
      vertex 28.5 -34.5 1
      vertex 28.5 34.5 -1
    endloop
  endfacet
  facet normal 0 0 -1
    outer loop
      vertex -28.5 -34.5 -1
      vertex -28.5 34.5 -1
      vertex 28.5 -34.5 -1
    endloop
  endfacet
  facet normal 0 0 -1
    outer loop
      vertex 28.5 -34.5 -1
      vertex -28.5 34.5 -1
      vertex 28.5 34.5 -1
    endloop
  endfacet
endsolid OpenSCAD_Model
